<svg width="22" height="22" viewBox="0 0 22 22" fill="none" xmlns="http://www.w3.org/2000/svg">
<path d="M19.8167 21.6875L12.3952 14.2063C11.8062 14.6813 11.1288 15.0573 10.3631 15.3344C9.5974 15.6115 8.7826 15.75 7.91872 15.75C5.77865 15.75 3.96745 15.0029 2.48511 13.5086C1.00277 12.0143 0.261597 10.1885 0.261597 8.03125C0.261597 5.87396 1.00277 4.04818 2.48511 2.55391C3.96745 1.05964 5.77865 0.3125 7.91872 0.3125C10.0588 0.3125 11.87 1.05964 13.3523 2.55391C14.8347 4.04818 15.5758 5.87396 15.5758 8.03125C15.5758 8.90208 15.4384 9.72344 15.1635 10.4953C14.8887 11.2672 14.5156 11.95 14.0444 12.5438L21.4659 20.025L19.8167 21.6875ZM7.91872 13.375C9.39125 13.375 10.6429 12.8555 11.6737 11.8164C12.7044 10.7773 13.2198 9.51563 13.2198 8.03125C13.2198 6.54688 12.7044 5.28516 11.6737 4.24609C10.6429 3.20703 9.39125 2.6875 7.91872 2.6875C6.4462 2.6875 5.19455 3.20703 4.16379 4.24609C3.13302 5.28516 2.61764 6.54688 2.61764 8.03125C2.61764 9.51563 3.13302 10.7773 4.16379 11.8164C5.19455 12.8555 6.4462 13.375 7.91872 13.375Z" fill="#1C1B1F"/>
</svg>
